<svg width="1440" height="383" viewBox="0 0 1440 383" fill="none" xmlns="http://www.w3.org/2000/svg">
<g id="wave 1" clip-path="url(#clip0_7_13)">
<path id="Vector" d="M1601 358.4L1531.73 349.92C1462.47 340.8 1323.93 324.8 1185.4 290.08C1046.87 256 908.333 204.8 769.8 196.32C631.267 187.2 492.733 222.4 354.2 264.48C215.667 307.2 77.1334 358.4 -61.3999 375.52C-199.933 392 -338.467 376 -407.733 366.88L-477 358.4V2.2808e-05H-407.733C-338.467 2.2808e-05 -199.933 2.2808e-05 -61.3999 2.2808e-05C77.1334 2.2808e-05 215.667 2.2808e-05 354.2 2.2808e-05C492.733 2.2808e-05 631.267 2.2808e-05 769.8 2.2808e-05C908.333 2.2808e-05 1046.87 2.2808e-05 1185.4 2.2808e-05C1323.93 2.2808e-05 1462.47 2.2808e-05 1531.73 2.2808e-05H1601V358.4Z" fill="#E9A6A6"/>
</g>
<defs>
<clipPath id="clip0_7_13">
<rect width="2078" height="383" fill="white" transform="translate(1601 383) rotate(-180)"/>
</clipPath>
</defs>
</svg>
